<svg width="25" height="24" viewBox="0 0 25 24" fill="none" xmlns="http://www.w3.org/2000/svg">
    <path
            d="M8.95992 19.24C8.34659 19.24 7.83992 19.04 7.43992 18.64C7.03992 18.24 6.83992 17.7733 6.83992 17.24C6.83992 16.84 6.98659 16.4266 7.27992 16C7.57326 15.6 8.22659 15.0266 9.23992 14.28C9.77326 13.9333 10.2266 13.5866 10.5999 13.24V13.04C10.2799 12.9866 9.91992 12.9466 9.51992 12.92C9.11992 12.8933 8.83992 12.88 8.67992 12.88C8.49326 12.88 8.23992 12.8666 7.91992 12.84C7.59992 12.8133 7.31992 12.7866 7.07992 12.76C5.63992 12.4933 4.91992 11.8 4.91992 10.68C4.91992 10.0933 5.09326 9.61328 5.43992 9.23995C5.81326 8.83995 6.27992 8.63995 6.83992 8.63995C7.13326 8.63995 7.45326 8.70662 7.79992 8.83995C8.27992 9.02662 8.91992 9.37328 9.71992 9.87995C10.4666 10.3066 10.9466 10.5733 11.1599 10.68L11.3599 10.48C11.2799 9.91995 11.1599 9.35995 10.9999 8.79995C10.7333 7.62662 10.5999 6.77328 10.5999 6.23995C10.5999 5.65328 10.7866 5.17328 11.1599 4.79995C11.5599 4.39995 12.0533 4.19995 12.6399 4.19995C13.1999 4.19995 13.6666 4.39995 14.0399 4.79995C14.4399 5.17328 14.6399 5.65328 14.6399 6.23995C14.6399 6.79995 14.5066 7.66662 14.2399 8.83995C14.0799 9.58662 13.9733 10.1333 13.9199 10.48L14.1199 10.68C14.3066 10.6 14.8133 10.3066 15.6399 9.79995C15.7466 9.71995 15.9866 9.57328 16.3599 9.35995C16.7599 9.11995 17.1066 8.94662 17.3999 8.83995C17.7466 8.70662 18.0666 8.63995 18.3599 8.63995C18.9199 8.63995 19.3866 8.83995 19.7599 9.23995C20.1333 9.61328 20.3199 10.0933 20.3199 10.68C20.3199 11.8 19.6266 12.4933 18.2399 12.76C17.9999 12.7866 17.7199 12.8133 17.3999 12.84C17.0799 12.8666 16.8266 12.88 16.6399 12.88C16.4799 12.88 16.1866 12.8933 15.7599 12.92C15.3599 12.9466 14.9866 12.9866 14.6399 13.04V13.24C15.0133 13.5866 15.4666 13.9333 15.9999 14.28C17.0133 15.0266 17.6666 15.6 17.9599 16C18.2533 16.3733 18.3999 16.7866 18.3999 17.24C18.3999 17.7733 18.1866 18.24 17.7599 18.64C17.3599 19.04 16.8799 19.24 16.3199 19.24C15.5466 19.24 14.9199 18.8666 14.4399 18.12C14.1199 17.64 13.7733 16.9333 13.3999 16C13.1333 15.36 12.9199 14.8933 12.7599 14.6H12.5199L11.9199 15.92C11.4933 16.9333 11.1199 17.6666 10.7999 18.12C10.2666 18.8666 9.65326 19.24 8.95992 19.24Z"
            fill="#E0E2E5"/>
    <path fill-rule="evenodd" clip-rule="evenodd"
          d="M5.53272 12.1065C5.74841 12.2936 6.02105 12.447 6.35063 12.5667C6.35528 12.5684 6.35995 12.5701 6.36462 12.5717C6.38106 12.5776 6.39764 12.5834 6.41436 12.5892C6.61584 12.6582 6.8377 12.7151 7.07992 12.76C7.30203 12.7846 7.5584 12.8093 7.84903 12.834C7.87244 12.836 7.89607 12.838 7.91992 12.84C7.95534 12.8429 7.98994 12.8457 8.02372 12.8483C8.08303 12.8529 8.13983 12.857 8.19411 12.8606C8.23858 12.8636 8.28136 12.8662 8.32246 12.8685C8.46075 12.8761 8.57991 12.88 8.67992 12.88C8.73895 12.88 8.81432 12.8818 8.90601 12.8854C9.06286 12.8916 9.2675 12.9031 9.51992 12.92C9.69376 12.9315 9.86003 12.9456 10.0188 12.9623C10.1451 12.9755 10.2666 12.9903 10.3834 13.0068C10.4575 13.0172 10.5297 13.0282 10.5999 13.04V13.24C10.5869 13.2521 10.5738 13.2642 10.5605 13.2763C10.4571 13.3709 10.3477 13.4655 10.2323 13.5601C9.99319 13.7563 9.72841 13.9525 9.43801 14.1487C9.43175 14.1529 9.42548 14.1572 9.4192 14.1614C9.38524 14.1843 9.35092 14.2071 9.31627 14.23C9.291 14.2466 9.26556 14.2633 9.23992 14.28C9.1178 14.3699 9.0009 14.4574 8.88923 14.5424C8.86033 14.5643 8.83178 14.5862 8.80359 14.6078C8.76159 14.6401 8.72037 14.6719 8.67992 14.7034C8.27289 15.0204 7.94454 15.2994 7.69487 15.5406C7.69152 15.5438 7.68819 15.5471 7.68487 15.5503C7.51114 15.7188 7.37616 15.8687 7.27992 16C7.10144 16.2596 6.97726 16.5142 6.90738 16.764C6.86241 16.9247 6.83992 17.0833 6.83992 17.24C6.83992 17.7733 7.03992 18.24 7.43992 18.64C7.83992 19.04 8.34659 19.24 8.95992 19.24C9.41903 19.24 9.84305 19.0763 10.232 18.7489C10.4237 18.5875 10.6069 18.3864 10.7815 18.1455C10.7877 18.137 10.7938 18.1285 10.7999 18.12C10.9392 17.9227 11.0885 17.6724 11.2479 17.3692C11.2841 17.3004 11.3208 17.2288 11.358 17.1545C11.418 17.0348 11.4793 16.908 11.542 16.7741C11.548 16.7614 11.5539 16.7488 11.5598 16.736C11.6515 16.539 11.746 16.327 11.8434 16.1C11.8687 16.041 11.8942 15.981 11.9199 15.92L12.5199 14.6H12.7599C12.7839 14.6439 12.809 14.6917 12.8354 14.7433C12.879 14.8289 12.9258 14.9251 12.976 15.0319C13.0979 15.2916 13.2392 15.6143 13.3999 16C13.4092 16.0231 13.4184 16.0462 13.4277 16.0691C13.5117 16.2773 13.5944 16.4741 13.6757 16.6592C13.6866 16.684 13.6974 16.7085 13.7082 16.7328C13.7712 16.8745 13.8334 17.0092 13.8948 17.1369C13.9307 17.2117 13.9664 17.2841 14.0017 17.3541C14.153 17.6533 14.299 17.9086 14.4399 18.12C14.4447 18.1274 14.4495 18.1348 14.4543 18.1422C14.6235 18.4011 14.8107 18.6143 15.0159 18.7816C15.3905 19.0872 15.8252 19.24 16.3199 19.24C16.8799 19.24 17.3599 19.04 17.7599 18.64C18.1866 18.24 18.3999 17.7733 18.3999 17.24C18.3999 17.0785 18.3813 16.9221 18.3441 16.7708C18.2768 16.4973 18.1488 16.2403 17.9599 16C17.8784 15.8888 17.7692 15.7643 17.6321 15.6265C17.6179 15.6122 17.6034 15.5977 17.5885 15.5831C17.3499 15.3481 17.0337 15.0757 16.6399 14.766C16.6226 14.7524 16.6051 14.7387 16.5875 14.7249C16.5728 14.7134 16.558 14.7019 16.5431 14.6903C16.3753 14.5599 16.1942 14.4231 15.9999 14.28C15.9805 14.2673 15.9612 14.2547 15.942 14.2421C15.909 14.2204 15.8762 14.1986 15.8437 14.1769C15.8419 14.1757 15.8401 14.1744 15.8383 14.1732C15.7298 14.1005 15.6249 14.0278 15.5236 13.9551C15.2876 13.7859 15.0707 13.6166 14.8729 13.4474C14.8049 13.3893 14.7392 13.3312 14.6758 13.273C14.6637 13.262 14.6518 13.251 14.6399 13.24V13.04C14.7103 13.0291 14.7817 13.0189 14.8543 13.0091C14.9364 12.9981 15.0199 12.9878 15.1049 12.9782C15.3147 12.9545 15.533 12.9351 15.7599 12.92C15.7907 12.918 15.8207 12.9162 15.8501 12.9144C16.0624 12.9015 16.2385 12.8922 16.3784 12.8866C16.4877 12.8822 16.5748 12.88 16.6399 12.88C16.7194 12.88 16.811 12.8775 16.9146 12.8727C16.9552 12.8708 16.9976 12.8685 17.0418 12.8659C17.1501 12.8595 17.2695 12.8508 17.3999 12.84C17.4331 12.8372 17.4658 12.8344 17.4981 12.8317C17.6356 12.8199 17.7653 12.8081 17.8872 12.7964C18.0131 12.7842 18.1306 12.7721 18.2399 12.76C18.2589 12.7563 18.2777 12.7526 18.2964 12.7488C18.3253 12.7429 18.354 12.7368 18.3823 12.7305C18.4678 12.7116 18.5504 12.6909 18.6302 12.6685C19.0848 12.5409 19.4476 12.3569 19.7187 12.1164C20.1195 11.7609 20.3199 11.2821 20.3199 10.68C20.3199 10.0933 20.1333 9.61328 19.7599 9.23995C19.3886 8.84208 18.9249 8.64209 18.3689 8.63997C18.3659 8.63996 18.3629 8.63995 18.3599 8.63995C18.082 8.63995 17.7801 8.69981 17.4542 8.81953C17.4362 8.82615 17.4181 8.83296 17.3999 8.83995C17.2989 8.8767 17.1915 8.92136 17.0778 8.97393C16.941 9.03717 16.795 9.11186 16.6399 9.198C16.5753 9.2339 16.509 9.27178 16.4412 9.31166C16.4296 9.31848 16.418 9.32536 16.4063 9.3323C16.3909 9.34142 16.3755 9.35063 16.3599 9.35995C15.9866 9.57328 15.7466 9.71995 15.6399 9.79995C15.6156 9.81488 15.5915 9.82962 15.5677 9.84418C15.5636 9.84669 15.5595 9.8492 15.5554 9.85171C15.4771 9.89955 15.4019 9.94538 15.3297 9.98919C14.9084 10.2448 14.5902 10.4318 14.375 10.55C14.3351 10.5719 14.2987 10.5915 14.2659 10.6087C14.205 10.6406 14.1564 10.6643 14.1199 10.68L13.9199 10.48C13.9289 10.4214 13.9395 10.3571 13.9515 10.287C13.9613 10.2302 13.9721 10.1695 13.9839 10.1051C14.015 9.93553 14.0531 9.73986 14.0981 9.51806C14.1267 9.37683 14.1582 9.22502 14.1925 9.06262C14.2078 8.99049 14.2236 8.91626 14.2399 8.83995C14.2964 8.59131 14.347 8.35644 14.3915 8.13535C14.399 8.09787 14.4064 8.06079 14.4136 8.02411C14.425 7.96603 14.436 7.90895 14.4465 7.85285C14.449 7.83954 14.4515 7.82628 14.454 7.81308C14.5502 7.29537 14.6091 6.86357 14.6306 6.51766C14.6314 6.50545 14.6321 6.49334 14.6328 6.48134C14.6353 6.43506 14.6372 6.39038 14.6384 6.34728C14.6394 6.31034 14.6399 6.27456 14.6399 6.23995C14.6399 6.07163 14.6235 5.9121 14.5905 5.76134C14.5087 5.38664 14.3252 5.06617 14.0399 4.79995C13.6666 4.39995 13.1999 4.19995 12.6399 4.19995C12.0533 4.19995 11.5599 4.39995 11.1599 4.79995L8.3315 1.97152C9.51215 0.790874 11.0363 0.199951 12.6399 0.199951C14.2345 0.199951 15.7307 0.804496 16.8693 1.97133C17.6567 2.74025 18.1711 3.65948 18.433 4.64038C20.0226 4.65884 21.5101 5.27973 22.6372 6.46093C23.8125 7.66343 24.3199 9.1822 24.3199 10.68C24.3199 12.1368 23.8337 13.6631 22.6283 14.8684C22.4551 15.0416 22.2755 15.1997 22.0913 15.344C22.2923 15.9408 22.3999 16.5769 22.3999 17.24C22.3999 18.9684 21.6628 20.4425 20.5422 21.5141C19.4066 22.6268 17.9309 23.24 16.3199 23.24C14.8538 23.24 13.6022 22.75 12.6035 21.9715C11.6525 22.7124 10.4392 23.24 8.95992 23.24C7.38429 23.24 5.82858 22.6855 4.61149 21.4684C3.51185 20.3687 2.83992 18.9035 2.83992 17.24C2.83992 16.5489 2.96502 15.9117 3.16482 15.3361C3.00102 15.2089 2.84078 15.0709 2.68536 14.9212C1.44434 13.7262 0.919922 12.183 0.919922 10.68C0.919922 9.24763 1.37107 7.74334 2.50875 6.51815L2.51569 6.51067C3.65656 5.28831 5.17704 4.64984 6.80204 4.64007C7.05365 3.67593 7.54835 2.75466 8.3315 1.97152L11.1599 4.79995C10.8902 5.0697 10.7179 5.39513 10.643 5.77625C10.6143 5.9226 10.5999 6.07717 10.5999 6.23995C10.5999 6.32827 10.6036 6.42537 10.6109 6.53125C10.6363 6.89957 10.706 7.3741 10.82 7.95484C10.8273 7.99206 10.8348 8.02971 10.8424 8.06779C10.8444 8.07782 10.8465 8.08787 10.8485 8.09795C10.8496 8.10326 10.8507 8.10859 10.8518 8.11391C10.8955 8.32894 10.9448 8.55762 10.9999 8.79995C11.0252 8.88831 11.0494 8.97666 11.0727 9.06502C11.1132 9.21922 11.1508 9.37343 11.1853 9.52764C11.2262 9.71048 11.2629 9.89332 11.2953 10.0762C11.3101 10.1594 11.3239 10.2427 11.3369 10.326C11.3449 10.3773 11.3526 10.4286 11.3599 10.48L11.1599 10.68C11.1187 10.6594 11.0676 10.6328 11.0065 10.6003C10.975 10.5835 10.9408 10.5651 10.9039 10.5451C10.6817 10.4246 10.3629 10.2461 9.94764 10.0098C9.8755 9.96877 9.80045 9.92597 9.72249 9.88142C9.72163 9.88093 9.72078 9.88044 9.71992 9.87995C9.43183 9.69749 9.16448 9.53578 8.91789 9.39482C8.86569 9.36498 8.81442 9.33607 8.76408 9.3081C8.73573 9.29234 8.70768 9.27688 8.67992 9.26171C8.52291 9.17593 8.37534 9.09958 8.23719 9.03266C8.08126 8.95712 7.93734 8.8936 7.80545 8.8421C7.8036 8.84138 7.80176 8.84067 7.79992 8.83995C7.78614 8.83465 7.7724 8.82945 7.7587 8.82436C7.73934 8.81717 7.72005 8.81018 7.70085 8.80341C7.40681 8.69964 7.13255 8.64528 6.87804 8.64033C6.86528 8.64008 6.85258 8.63995 6.83992 8.63995C6.27992 8.63995 5.81326 8.83995 5.43992 9.23995C5.09326 9.61328 4.91992 10.0933 4.91992 10.68C4.91992 11.2765 5.12419 11.752 5.53272 12.1065Z"
          fill="#FF9EC1"
    />
</svg>