<svg width="74" height="74" viewBox="0 0 74 74" fill="none" xmlns="http://www.w3.org/2000/svg">
<path d="M62.5108 72H11.4892C11.4892 72 4.60106 65.1118 2 62.5108L4.93149 31.6199L2 11.4892L11.4892 2H62.5108C67.7553 2 72 6.25321 72 11.4892V62.5108C72 67.7553 67.7553 72 62.5108 72Z" stroke="#E0E2E5" stroke-width="3" stroke-miterlimit="10" stroke-linecap="round" stroke-linejoin="round"/>
<path d="M2.87256 53.284L19.0212 46.2094L25.7314 34.5173L44.354 47.9209C46.7941 49.1833 49.6155 49.4968 52.2674 48.802L71.9999 43.6338" stroke="#E0E2E5" stroke-width="3" stroke-miterlimit="10" stroke-linecap="round" stroke-linejoin="round"/>
<path d="M51.2101 35.4202C55.1922 35.4202 58.4202 32.1922 58.4202 28.2101C58.4202 24.2281 55.1922 21 51.2101 21C47.2281 21 44 24.2281 44 28.2101C44 32.1922 47.2281 35.4202 51.2101 35.4202Z" stroke="#E0E2E5" stroke-width="3" stroke-miterlimit="10" stroke-linecap="round" stroke-linejoin="round"/>
</svg>
